<?xml version="1.0" encoding="UTF-8" standalone="no"?>
<!-- Generator: Adobe Illustrator 16.0.3, SVG Export Plug-In . SVG Version: 6.00 Build 0)  -->

<svg
   xmlns:dc="http://purl.org/dc/elements/1.1/"
   xmlns:cc="http://creativecommons.org/ns#"
   xmlns:rdf="http://www.w3.org/1999/02/22-rdf-syntax-ns#"
   xmlns:svg="http://www.w3.org/2000/svg"
   xmlns="http://www.w3.org/2000/svg"
   xmlns:sodipodi="http://sodipodi.sourceforge.net/DTD/sodipodi-0.dtd"
   xmlns:inkscape="http://www.inkscape.org/namespaces/inkscape"
   version="1.1"
   id="Layer_1"
   x="0px"
   y="0px"
   width="100px"
   height="100px"
   viewBox="0 0 100 100"
   enable-background="new 0 0 100 100"
   xml:space="preserve"
   inkscape:version="0.91 r13725"
   sodipodi:docname="logo.svg"
   inkscape:export-filename="C:\Users\Damien\Documents\stuff\site\Images\siteStyle\logo.png"
   inkscape:export-xdpi="90"
   inkscape:export-ydpi="90"><metadata
     id="metadata4164"><rdf:RDF><cc:Work
         rdf:about=""><dc:format>image/svg+xml</dc:format><dc:type
           rdf:resource="http://purl.org/dc/dcmitype/StillImage" /></cc:Work></rdf:RDF></metadata><defs
     id="defs4162" /><sodipodi:namedview
     pagecolor="#ffffff"
     bordercolor="#666666"
     borderopacity="1"
     objecttolerance="10"
     gridtolerance="10"
     guidetolerance="10"
     inkscape:pageopacity="0"
     inkscape:pageshadow="2"
     inkscape:window-width="1280"
     inkscape:window-height="657"
     id="namedview4160"
     showgrid="false"
     inkscape:zoom="5.6568543"
     inkscape:cx="59.82845"
     inkscape:cy="39.64234"
     inkscape:window-x="-8"
     inkscape:window-y="-8"
     inkscape:window-maximized="1"
     inkscape:current-layer="Layer_1" /><path
     style="fill:#0dafd4;fill-opacity:1;fill-rule:evenodd;stroke:#000000;stroke-width:1px;stroke-linecap:butt;stroke-linejoin:miter;stroke-opacity:1"
     d="m 97.890095,82.493587 -68.589358,0.04972 m 0,0 L 35.001786,71.14121 78.974989,70.787653 42.061805,10.595186 56.656931,10.550996 99.09322,82.165462"
     id="path4209"
     inkscape:connector-curvature="0"
     sodipodi:nodetypes="cccccccc" /><path
     style="fill:#00214a;fill-opacity:1;fill-rule:evenodd;stroke:#000000;stroke-width:1px;stroke-linecap:butt;stroke-linejoin:miter;stroke-opacity:1"
     d="M 42.820158,32.305647 8.2624859,93.266295 m -0.011049,0.01105 82.6684847,0 7.664062,-10.847656 -69.220703,0 20.121438,-37.166129 -7.382716,-12.957912"
     id="path4172"
     inkscape:connector-curvature="0"
     sodipodi:nodetypes="cccccccc" /><path
     style="color:#000000;clip-rule:nonzero;display:inline;overflow:visible;visibility:visible;opacity:1;isolation:auto;mix-blend-mode:normal;color-interpolation:sRGB;color-interpolation-filters:linearRGB;solid-color:#000000;solid-opacity:1;fill:none;fill-opacity:1;fill-rule:evenodd;stroke:none;stroke-width:4.71698093;stroke-linecap:round;stroke-linejoin:round;stroke-miterlimit:4;stroke-dasharray:none;stroke-dashoffset:0;stroke-opacity:1;color-rendering:auto;image-rendering:auto;shape-rendering:auto;text-rendering:auto;enable-background:accumulate"
     d="M 5.102299,83.723524 2.1461087,78.79351 21.552242,44.454654 C 32.225616,25.568283 41.109607,9.9505487 41.294445,9.7485774 41.553779,9.4652041 76.404714,64.762906 77.09104,66.546755 c 0.08648,0.224765 -2.991349,0.402614 -6.839623,0.395217 L 63.254563,66.92852 56.886639,55.796447 C 53.38428,49.673807 48.599309,41.270619 46.253363,37.122695 43.90742,32.974771 41.796839,29.583187 41.563182,29.58584 41.329526,29.588481 33.803179,42.879566 24.837968,59.121557 15.872755,75.363548 8.4297866,88.652694 8.2980356,88.652991 8.1662852,88.653288 6.7282036,86.435029 5.102299,83.723524 Z"
     id="path4168"
     inkscape:connector-curvature="0" /><path
     style="fill:#f2b91a;fill-opacity:1;fill-rule:evenodd;stroke:#000000;stroke-width:1px;stroke-linecap:butt;stroke-linejoin:miter;stroke-opacity:1"
     d="M 79.127358,70.872642 42.07739,10.702094 M 41.599297,10.333375 1.7688679,82.193396 8.236312,92.788172 42.099057,33.490566 l 22.051886,37.382076 14.976415,0"
     id="path4170"
     inkscape:connector-curvature="0"
     sodipodi:nodetypes="cccccccc" /></svg>